<?xml version="1.0" encoding="UTF-8" standalone="no"?>
<svg
   xmlns:dc="http://purl.org/dc/elements/1.1/"
   xmlns:cc="http://creativecommons.org/ns#"
   xmlns:rdf="http://www.w3.org/1999/02/22-rdf-syntax-ns#"
   xmlns:svg="http://www.w3.org/2000/svg"
   xmlns="http://www.w3.org/2000/svg"
   version="1.1"
   id="svg2"
   viewBox="0 0 180 35.000001"
   height="9.8777781mm"
   width="50.799999mm">
  <defs
     id="defs4" />
  <metadata
     id="metadata7">
    <rdf:RDF>
      <cc:Work
         rdf:about="">
        <dc:format>image/svg+xml</dc:format>
        <dc:type
           rdf:resource="http://purl.org/dc/dcmitype/StillImage" />
        <dc:title></dc:title>
      </cc:Work>
    </rdf:RDF>
  </metadata>
  <g
     transform="translate(-133,-317.36133)"
     id="layer1">
    <path
       id="rect4142"
       d="m 133,317.36133 0,35 180,0 0,-23.14649 -13.44922,-11.85351 -166.55078,0 z m 55.19336,5.36523 0,7.84961 c 0.34427,-0.11476 0.75825,-0.21874 1.24023,-0.31055 0.48199,-0.11475 0.90621,-0.17187 1.27344,-0.17187 1.19349,0 2.19279,0.18355 2.99609,0.55078 0.80331,0.34428 1.44575,0.85003 1.92774,1.51563 0.48199,0.64264 0.82468,1.42177 1.03125,2.33984 0.20656,0.89512 0.31055,1.89441 0.31055,2.99609 l 0,9.12305 -4.23438,0 0,-8.57226 c 0,-1.51482 -0.17135,-2.60589 -0.51562,-3.27149 -0.34428,-0.6656 -0.99892,-0.99805 -1.96289,-0.99805 -0.39018,0 -0.7817,0.0469 -1.17188,0.13868 -0.36723,0.0918 -0.66501,0.17137 -0.89453,0.24023 l 0,12.46289 -4.23438,0 0,-23.16992 4.23438,-0.72266 z m 42.82812,0 0,23.41016 c -0.78035,0.25247 -1.73278,0.46043 -2.85742,0.62109 -1.12463,0.16066 -2.22595,0.24024 -3.30468,0.24024 -2.52469,0 -4.44176,-0.74642 -5.75,-2.23828 -1.2853,-1.49187 -1.92774,-3.53341 -1.92774,-6.12696 0,-2.63944 0.54041,-4.71761 1.61914,-6.23242 1.10168,-1.53776 2.71901,-2.30664 4.85352,-2.30664 0.57379,0 1.13666,0.0693 1.6875,0.20703 0.55084,0.11476 1.03218,0.28611 1.44531,0.51563 l 0,-7.36719 4.23437,-0.72266 z m 20.86329,0.20703 8.71093,0 0,17.55664 c 0,1.10169 0.21626,1.84811 0.65235,2.23829 0.43608,0.39017 0.98869,0.58593 1.65429,0.58593 0.84922,0 1.55902,-0.11423 2.13282,-0.34375 0.57379,-0.22951 0.9531,-0.38036 1.13672,-0.44922 l 0.55078,3.41016 c -0.0689,0.0459 -0.22996,0.12548 -0.48243,0.24024 -0.22951,0.11475 -0.5395,0.24119 -0.92968,0.3789 -0.39018,0.11476 -0.87152,0.21679 -1.44532,0.3086 -0.55084,0.0918 -1.18107,0.13867 -1.89257,0.13867 -1.9509,0 -3.37442,-0.57312 -4.26954,-1.72071 -0.89511,-1.17053 -1.34375,-2.86938 -1.34374,-5.0957 l 0,-13.73633 -4.47461,0 0,-3.51172 z m -95.53711,1.89258 c 1.30824,0 2.44423,0.1489 3.4082,0.44727 0.98692,0.29837 1.81487,0.63277 2.48047,1 l -1.24024,3.26953 c -0.57379,-0.32133 -1.21623,-0.59666 -1.92773,-0.82617 -0.68855,-0.22952 -1.49209,-0.34375 -2.41016,-0.34375 -2.24926,0 -3.37304,0.81379 -3.37304,2.44336 0,0.41313 0.11423,0.78023 0.34375,1.10156 0.22951,0.29837 0.5151,0.5737 0.85937,0.82617 0.36723,0.22952 0.769,0.43748 1.20508,0.62109 0.45903,0.18362 0.90767,0.35497 1.34375,0.51563 0.6656,0.25247 1.35295,0.54 2.06445,0.86133 0.73446,0.29837 1.40131,0.71039 1.99805,1.23828 0.6197,0.50494 1.12349,1.14738 1.51367,1.92773 0.39018,0.75741 0.58594,1.72204 0.58594,2.89258 0,1.9968 -0.65464,3.54676 -1.96289,4.64844 -1.2853,1.07873 -3.24727,1.61719 -5.88672,1.61719 -1.76728,0 -3.1786,-0.18356 -4.23438,-0.55079 -1.05577,-0.39017 -1.84711,-0.74508 -2.375,-1.0664 l 1.23829,-3.44336 c 0.61969,0.36723 1.35391,0.71188 2.20312,1.0332 0.87217,0.32133 1.92858,0.48242 3.16797,0.48242 0.7115,0 1.29682,-0.0693 1.75586,-0.20703 0.48198,-0.16066 0.8613,-0.36667 1.13672,-0.61914 0.27542,-0.27542 0.45897,-0.57516 0.55078,-0.89648 0.11476,-0.34428 0.17187,-0.68893 0.17187,-1.03321 0,-0.43608 -0.12643,-0.82564 -0.3789,-1.16992 -0.25247,-0.34427 -0.57467,-0.64206 -0.96485,-0.89453 -0.39018,-0.27542 -0.82465,-0.51609 -1.30664,-0.72265 -0.48198,-0.22952 -0.96528,-0.43748 -1.44726,-0.6211 -0.64265,-0.22952 -1.30755,-0.49264 -1.9961,-0.79101 -0.68855,-0.29838 -1.31878,-0.67769 -1.89257,-1.13672 -0.55085,-0.45904 -1.01168,-1.01995 -1.37891,-1.68555 -0.36723,-0.68855 -0.55078,-1.53895 -0.55078,-2.54883 0,-1.9968 0.64439,-3.557 1.92969,-4.68164 1.30824,-1.12463 3.09692,-1.6875 5.36914,-1.6875 z m 19.0039,5.19922 c 0.96397,0 1.83683,0.0693 2.61719,0.20703 0.78036,0.13771 1.57169,0.36618 2.375,0.6875 l -0.92969,3.4082 c -0.45903,-0.16066 -0.97503,-0.29735 -1.54883,-0.4121 -0.55084,-0.13771 -1.2626,-0.20704 -2.13476,-0.20704 -1.00988,0 -1.85833,0.12644 -2.54688,0.37891 -0.6656,0.22952 -1.20601,0.56197 -1.61914,0.99805 -0.41313,0.41313 -0.71091,0.91888 -0.89453,1.51562 -0.18361,0.59675 -0.27539,1.23919 -0.27539,1.92774 0,1.49186 0.41397,2.6625 1.24024,3.51172 0.84921,0.84921 2.28298,1.27343 4.30273,1.27343 0.6656,0 1.3549,-0.0469 2.06641,-0.13867 0.73445,-0.0918 1.39935,-0.2407 1.99609,-0.44726 l 0.61914,3.47851 c -0.59674,0.22952 -1.31876,0.41307 -2.16797,0.55078 -0.84921,0.16066 -1.84851,0.24024 -2.99609,0.24024 -1.65252,0 -3.07409,-0.21822 -4.26758,-0.6543 -1.17054,-0.43608 -2.13517,-1.03361 -2.89258,-1.79102 -0.7574,-0.7574 -1.32027,-1.65076 -1.6875,-2.68359 -0.34427,-1.03283 -0.51562,-2.14635 -0.51562,-3.33984 0,-1.17054 0.18355,-2.27186 0.55078,-3.30469 0.36723,-1.03283 0.92814,-1.92814 1.68554,-2.68555 0.75741,-0.78036 1.71179,-1.39009 2.85938,-1.82617 1.17054,-0.45903 2.55744,-0.6875 4.16406,-0.6875 z m 32.36328,0 c 2.38698,0 4.20006,0.71176 5.43946,2.13477 1.23939,1.40005 1.85937,3.4538 1.85937,6.16211 0,0.27542 -0.0122,0.56295 -0.0351,0.86132 0,0.29838 -0.0122,0.53905 -0.0352,0.72266 l -10.5,0 c 0,1.05578 0.43643,1.89398 1.30859,2.51367 0.87217,0.59675 1.99595,0.89453 3.37305,0.89453 0.84921,0 1.65275,-0.0918 2.41016,-0.27539 0.78035,-0.18361 1.435,-0.36717 1.96289,-0.55078 l 0.58593,3.61524 c -0.73445,0.25246 -1.51553,0.45847 -2.34179,0.61914 -0.82626,0.18361 -1.75624,0.27539 -2.78907,0.27539 -1.3771,0 -2.61511,-0.17135 -3.71679,-0.51563 -1.07873,-0.36723 -2.00871,-0.89543 -2.78906,-1.58398 -0.75741,-0.71151 -1.34273,-1.58436 -1.75586,-2.61719 -0.41313,-1.03283 -0.6211,-2.23813 -0.6211,-3.61523 0,-1.42301 0.21822,-2.67323 0.6543,-3.75196 0.43608,-1.07873 1.01115,-1.97404 1.72266,-2.68554 0.7115,-0.73446 1.52529,-1.28512 2.44335,-1.65235 0.91807,-0.36723 1.86025,-0.55078 2.82422,-0.55078 z m 70.81641,0.10352 c 0.22952,0 0.55171,0.0102 0.96484,0.0332 0.43609,0.023 0.89497,0.0698 1.37696,0.13867 0.48198,0.0459 0.96332,0.11523 1.44531,0.20703 0.50494,0.0689 0.95357,0.17089 1.34375,0.3086 l -0.75781,3.92578 c -0.27542,-0.0689 -0.60787,-0.13818 -0.99805,-0.20703 -0.36723,-0.0689 -0.74654,-0.12598 -1.13672,-0.17188 -0.39018,-0.0688 -0.76949,-0.11572 -1.13672,-0.13867 -0.36722,-0.0229 -0.67722,-0.0332 -0.92969,-0.0332 -0.59674,0 -1.18206,0.0347 -1.75585,0.10351 -0.5738,0.0459 -1.15912,0.14793 -1.75586,0.3086 l 0,12.01562 -4.26758,0 0,-15.11328 c 1.12463,-0.41313 2.27087,-0.74558 3.4414,-0.99805 1.19349,-0.25247 2.58235,-0.3789 4.16602,-0.3789 z m -43.06836,0.30859 4.23438,0 0,8.4707 c 0,1.49186 0.17135,2.60344 0.51562,3.33789 0.36723,0.71151 1.06874,1.06836 2.10156,1.06836 0.64265,0 1.28509,-0.0571 1.92774,-0.17187 l 0,-12.70508 4.26953,0 0,15.63086 c -0.78036,0.20656 -1.73279,0.41257 -2.85742,0.61914 -1.10169,0.20657 -2.30699,0.31055 -3.61524,0.31055 -1.3312,0 -2.42227,-0.18356 -3.27148,-0.55078 -0.84921,-0.36723 -1.52631,-0.88323 -2.03125,-1.54883 -0.48199,-0.68855 -0.81444,-1.49209 -0.99805,-2.41016 -0.18361,-0.91807 -0.27539,-1.92761 -0.27539,-3.0293 l 0,-9.02148 z m -27.67969,3.13281 c -0.55084,0 -1.03218,0.0918 -1.44531,0.27539 -0.39018,0.18362 -0.72458,0.43649 -1,0.75782 -0.25247,0.32132 -0.45848,0.68843 -0.61914,1.10156 -0.13771,0.41313 -0.22949,0.83931 -0.27539,1.27539 l 6.47266,0 c 0,-0.43608 -0.0571,-0.85006 -0.17188,-1.24024 -0.11476,-0.41313 -0.29831,-0.78023 -0.55078,-1.10156 -0.25247,-0.32132 -0.57467,-0.5742 -0.96484,-0.75781 -0.39018,-0.20657 -0.87152,-0.31055 -1.44532,-0.31055 z m 16.59375,0.17383 c -1.00987,0 -1.74409,0.40177 -2.20312,1.20508 -0.45904,0.80331 -0.68946,1.96175 -0.68945,3.47656 0,1.44596 0.26507,2.62685 0.79296,3.54492 0.55084,0.91807 1.42175,1.37696 2.61524,1.37696 0.34427,0 0.66647,-0.0103 0.96484,-0.0332 0.29837,-0.023 0.60837,-0.0576 0.92969,-0.10351 l 0,-8.81446 c -0.32132,-0.18361 -0.68843,-0.3325 -1.10156,-0.44726 -0.41313,-0.13771 -0.84956,-0.20508 -1.3086,-0.20508 z m 69.33789,7.125 c 0.80331,0 1.51507,0.26508 2.13477,0.79297 0.6197,0.52789 0.92773,1.27431 0.92773,2.23828 0,1.00988 -0.30803,1.77875 -0.92773,2.30664 -0.6197,0.52789 -1.33146,0.79102 -2.13477,0.79102 -0.41313,0 -0.80464,-0.0693 -1.17187,-0.20703 -0.36723,-0.13771 -0.69968,-0.33152 -0.99805,-0.58399 -0.27542,-0.27542 -0.50388,-0.59762 -0.6875,-0.96484 -0.16066,-0.39018 -0.24219,-0.83686 -0.24219,-1.3418 0,-0.48199 0.0815,-0.90816 0.24219,-1.27539 0.18362,-0.39018 0.41208,-0.71042 0.6875,-0.96289 0.29837,-0.25247 0.63082,-0.44823 0.99805,-0.58594 0.36723,-0.13771 0.75874,-0.20703 1.17187,-0.20703 z"
       style="opacity:1;fill:#4d4d4d;fill-opacity:1;stroke:none;stroke-width:7.81599998;stroke-linecap:round;stroke-linejoin:round;stroke-miterlimit:4;stroke-dasharray:none;stroke-dashoffset:0;stroke-opacity:1" />
  </g>
</svg>
