<?xml version="1.0" encoding="UTF-8" standalone="no"?>
<svg
   xmlns:dc="http://purl.org/dc/elements/1.1/"
   xmlns:cc="http://creativecommons.org/ns#"
   xmlns:rdf="http://www.w3.org/1999/02/22-rdf-syntax-ns#"
   xmlns:svg="http://www.w3.org/2000/svg"
   xmlns="http://www.w3.org/2000/svg"
   xmlns:sodipodi="http://sodipodi.sourceforge.net/DTD/sodipodi-0.dtd"
   xmlns:inkscape="http://www.inkscape.org/namespaces/inkscape"
   version="1.1"
   id="svg2"
   viewBox="0 0 51.822107 32.033899"
   height="9.040678mm"
   width="14.62535mm"
   inkscape:version="0.91 r13725"
   sodipodi:docname="sh-logo.svg">
  <sodipodi:namedview
     pagecolor="#ffffff"
     bordercolor="#666666"
     borderopacity="1"
     objecttolerance="10"
     gridtolerance="10"
     guidetolerance="10"
     inkscape:pageopacity="0"
     inkscape:pageshadow="2"
     inkscape:window-width="1366"
     inkscape:window-height="713"
     id="namedview7"
     showgrid="false"
     inkscape:zoom="7.4167647"
     inkscape:cx="19.19497"
     inkscape:cy="11.123721"
     inkscape:window-x="0"
     inkscape:window-y="27"
     inkscape:window-maximized="0"
     inkscape:current-layer="g3341"
     fit-margin-top="0"
     fit-margin-left="0"
     fit-margin-right="0"
     fit-margin-bottom="0" />
  <defs
     id="defs4" />
  <metadata
     id="metadata7">
    <rdf:RDF>
      <cc:Work
         rdf:about="">
        <dc:format>image/svg+xml</dc:format>
        <dc:type
           rdf:resource="http://purl.org/dc/dcmitype/StillImage" />
        <dc:title />
      </cc:Work>
    </rdf:RDF>
  </metadata>
  <g
     id="g3341"
     transform="translate(-28.220339,-2.5847478)">
    <rect
       style="fill:#ffffff;fill-opacity:1"
       id="rect4135"
       width="48.943172"
       height="28.314232"
       x="29.433805"
       y="4.5516281" />
    <path
       style="fill:#505050;fill-opacity:1"
       d="M 0 0 L 0 32.033203 L 51.822266 32.033203 L 51.822266 0 L 0 0 z M 24.621094 3.3476562 L 27.490234 3.3476562 L 27.490234 10.136719 L 27.386719 13.636719 C 28.203385 12.866719 29.05474 12.214401 29.941406 11.677734 C 30.828073 11.117734 31.866641 10.837891 33.056641 10.837891 C 34.853307 10.837891 36.159897 11.397578 36.976562 12.517578 C 37.816564 13.637578 38.236328 15.292995 38.236328 17.486328 L 38.236328 28.267578 L 35.365234 28.267578 L 35.365234 17.871094 C 35.365234 16.261094 35.109036 15.10625 34.595703 14.40625 C 34.08237 13.682917 33.266484 13.322266 32.146484 13.322266 C 31.259818 13.322266 30.477448 13.542995 29.800781 13.986328 C 29.124115 14.429661 28.353568 15.083932 27.490234 15.947266 L 27.490234 28.267578 L 24.621094 28.267578 L 24.621094 3.3476562 z M 12.888672 4.8867188 C 14.265339 4.8867188 15.536458 5.1547396 16.703125 5.6914062 C 17.869792 6.2047397 18.863021 6.8826562 19.679688 7.7226562 L 18.103516 9.6113281 C 17.403516 8.9346615 16.623099 8.4104427 15.759766 8.0371094 C 14.919766 7.6404427 13.962005 7.4414062 12.888672 7.4414062 C 11.605339 7.4414062 10.566771 7.7448958 9.7734375 8.3515625 C 9.0034375 8.9348958 8.6191406 9.7527348 8.6191406 10.802734 C 8.6191406 11.362734 8.7235937 11.839661 8.9335938 12.236328 C 9.1669271 12.609661 9.4704167 12.94862 9.84375 13.251953 C 10.217083 13.531953 10.625026 13.788151 11.068359 14.021484 C 11.511693 14.231484 11.966927 14.430521 12.433594 14.617188 L 15.689453 16.017578 C 16.342786 16.297578 16.959635 16.62276 17.542969 16.996094 C 18.126302 17.346094 18.628828 17.767812 19.048828 18.257812 C 19.468828 18.724479 19.795964 19.284167 20.029297 19.9375 C 20.285964 20.5675 20.414063 21.302578 20.414062 22.142578 C 20.414062 23.052578 20.226849 23.903932 19.853516 24.697266 C 19.503516 25.490599 18.99112 26.190208 18.314453 26.796875 C 17.637786 27.380208 16.819948 27.847266 15.863281 28.197266 C 14.906615 28.523932 13.822708 28.6875 12.609375 28.6875 C 10.999375 28.6875 9.505573 28.38401 8.1289062 27.777344 C 6.7522397 27.170677 5.5619271 26.341016 4.5585938 25.291016 L 6.3085938 23.261719 C 7.1252604 24.125052 8.0830208 24.824661 9.1796875 25.361328 C 10.299688 25.874661 11.454531 26.132813 12.644531 26.132812 C 14.161198 26.132813 15.339688 25.793854 16.179688 25.117188 C 17.019687 24.417187 17.439453 23.506719 17.439453 22.386719 C 17.439453 21.803385 17.333047 21.312682 17.123047 20.916016 C 16.93638 20.496016 16.668359 20.147188 16.318359 19.867188 C 15.991693 19.563854 15.595573 19.295833 15.128906 19.0625 C 14.66224 18.829167 14.159714 18.582839 13.623047 18.326172 L 10.333984 16.892578 C 9.7973181 16.659245 9.2494531 16.379401 8.6894531 16.052734 C 8.1294531 15.726068 7.626927 15.327995 7.1835938 14.861328 C 6.7402604 14.394661 6.3796094 13.846797 6.0996094 13.216797 C 5.8196094 12.563464 5.6796875 11.816562 5.6796875 10.976562 C 5.6796875 10.11323 5.853125 9.3091667 6.203125 8.5625 C 6.5764583 7.8158333 7.0789844 7.1733854 7.7089844 6.6367188 C 8.3623177 6.0767187 9.1210417 5.6451302 9.984375 5.3417969 C 10.871042 5.0384635 11.838672 4.8867187 12.888672 4.8867188 z M 45.197266 24.277344 C 45.757266 24.277344 46.236146 24.48625 46.632812 24.90625 C 47.052813 25.302917 47.263672 25.840911 47.263672 26.517578 C 47.263672 27.147578 47.052813 27.671797 46.632812 28.091797 C 46.236146 28.488464 45.757266 28.6875 45.197266 28.6875 C 44.613932 28.6875 44.113359 28.488464 43.693359 28.091797 C 43.296693 27.671797 43.097656 27.147578 43.097656 26.517578 C 43.097656 25.840911 43.296693 25.302917 43.693359 24.90625 C 44.113359 24.48625 44.613932 24.277344 45.197266 24.277344 z "
       transform="translate(28.220339,2.5847478)"
       id="rect3339" />
    <g
       style="font-style:normal;font-variant:normal;font-weight:normal;font-stretch:normal;font-size:35px;line-height:125%;font-family:'Source Sans Pro';-inkscape-font-specification:'Source Sans Pro';letter-spacing:0px;word-spacing:0px;fill:#ffffff;fill-opacity:1;stroke:none;stroke-width:1px;stroke-linecap:butt;stroke-linejoin:miter;stroke-opacity:1"
       id="text3335" />
  </g>
</svg>
